<svg version="1.1" xmlns="http://www.w3.org/2000/svg" viewBox="0 0 1573.8961487972392 556.6913548991233" width="1573.8961487972392" height="556.6913548991233">
  <!-- svg-source:excalidraw -->
  
  <defs>
    <style class="style-fonts">
      @font-face {
        font-family: "Virgil";
        src: url("https://excalidraw.com/Virgil.woff2");
      }
      @font-face {
        font-family: "Cascadia";
        src: url("https://excalidraw.com/Cascadia.woff2");
      }
      @font-face {
        font-family: "Assistant";
        src: url("https://excalidraw.com/Assistant-Regular.woff2");
      }
    </style>
    
  </defs>
  <rect x="0" y="0" width="1573.8961487972392" height="556.6913548991233" fill="#ffffff"></rect><g stroke-linecap="round" transform="translate(168.5 447.69135489912327) rotate(0 103.5 49.5)"><path d="M24.75 0 C84.69 0.71, 144.42 0.01, 182.25 0 M24.75 0 C86.25 1.88, 149.29 2.13, 182.25 0 M182.25 0 C197.68 -1.19, 206.93 10.19, 207 24.75 M182.25 0 C200.76 0.31, 204.85 10.18, 207 24.75 M207 24.75 C206.53 42.27, 207.41 61.7, 207 74.25 M207 24.75 C206.85 44.42, 207.73 62.84, 207 74.25 M207 74.25 C207.84 91.55, 198.2 100.82, 182.25 99 M207 74.25 C208.68 92.7, 197.27 99.36, 182.25 99 M182.25 99 C143.69 97.55, 105.52 99.48, 24.75 99 M182.25 99 C126.31 99.59, 69.38 99.23, 24.75 99 M24.75 99 C7.98 98.3, -0.4 90.18, 0 74.25 M24.75 99 C6.59 97.86, -1.18 91.3, 0 74.25 M0 74.25 C-0.18 64.62, -1.53 53.33, 0 24.75 M0 74.25 C-1.04 57.94, 0.7 40.06, 0 24.75 M0 24.75 C0.98 9.53, 8.27 -1.18, 24.75 0 M0 24.75 C2.04 7.67, 10.07 1, 24.75 0" stroke="#1e1e1e" stroke-width="2" fill="none"></path></g><g transform="translate(212.53005981445312 484.69135489912327) rotate(0 59.469940185546875 12.5)"><text x="59.469940185546875" y="17.52" font-family="Virgil, Segoe UI Emoji" font-size="20px" fill="#1e1e1e" text-anchor="middle" style="white-space: pre;" direction="ltr" dominant-baseline="alphabetic">Ingredientes</text></g><g stroke-linecap="round" transform="translate(173 265.19135489912327) rotate(0 103.5 49.5)"><path d="M24.75 0 C68.7 -0.86, 109.99 -0.42, 182.25 0 M24.75 0 C83.8 1.27, 143.36 0.22, 182.25 0 M182.25 0 C197.34 0.08, 208.18 8.55, 207 24.75 M182.25 0 C197.26 0.75, 207.7 8.51, 207 24.75 M207 24.75 C207.56 45.31, 206.54 63.6, 207 74.25 M207 24.75 C206.49 40.53, 207.38 56.66, 207 74.25 M207 74.25 C207.39 91.57, 197.62 97.87, 182.25 99 M207 74.25 C207.06 89.7, 201 99.45, 182.25 99 M182.25 99 C122.58 97.73, 62.13 99.58, 24.75 99 M182.25 99 C143.75 99.95, 106.17 100.11, 24.75 99 M24.75 99 C7.75 98.21, 1.22 91.63, 0 74.25 M24.75 99 C6.56 97.98, -1.65 92.01, 0 74.25 M0 74.25 C-0.69 62.55, 1.18 48.55, 0 24.75 M0 74.25 C-0.08 57.75, -0.26 42.83, 0 24.75 M0 24.75 C-1.47 7.25, 8.22 0.12, 24.75 0 M0 24.75 C-0.96 7.51, 7.04 -1.57, 24.75 0" stroke="#1e1e1e" stroke-width="2" fill="none"></path></g><g transform="translate(255.8000259399414 302.19135489912327) rotate(0 20.699974060058594 12.5)"><text x="20.699974060058594" y="17.52" font-family="Virgil, Segoe UI Emoji" font-size="20px" fill="#1e1e1e" text-anchor="middle" style="white-space: pre;" direction="ltr" dominant-baseline="alphabetic">Tipo</text></g><g stroke-linecap="round" transform="translate(10 95.19135489912327) rotate(0 103.5 49.5)"><path d="M24.75 0 C71.36 1.16, 118 2.35, 182.25 0 M24.75 0 C66.87 0, 110.72 -0.68, 182.25 0 M182.25 0 C197.24 0.66, 207.42 7.21, 207 24.75 M182.25 0 C199.28 -0.51, 206.18 7.12, 207 24.75 M207 24.75 C207.77 36.2, 206.87 48.85, 207 74.25 M207 24.75 C207.63 37.69, 206.77 50.77, 207 74.25 M207 74.25 C205.44 91.91, 197.05 99.66, 182.25 99 M207 74.25 C204.89 89.23, 197.64 100.79, 182.25 99 M182.25 99 C131.07 99.67, 81.97 98.94, 24.75 99 M182.25 99 C122.33 98.85, 61.78 98.99, 24.75 99 M24.75 99 C8.14 97.7, 1.42 89.9, 0 74.25 M24.75 99 C6.76 97.3, 1.76 90.14, 0 74.25 M0 74.25 C0.03 54.31, -1 38.95, 0 24.75 M0 74.25 C-0.86 62.76, -0.37 52.46, 0 24.75 M0 24.75 C-1.44 7, 8.3 0.72, 24.75 0 M0 24.75 C1.97 8.67, 8.88 1.41, 24.75 0" stroke="#1e1e1e" stroke-width="2" fill="none"></path></g><g transform="translate(62.55005645751953 132.19135489912327) rotate(0 50.94994354248047 12.5)"><text x="50.94994354248047" y="17.52" font-family="Virgil, Segoe UI Emoji" font-size="20px" fill="#1e1e1e" text-anchor="middle" style="white-space: pre;" direction="ltr" dominant-baseline="alphabetic">Nutrientes</text></g><g stroke-linecap="round" transform="translate(328 94.19135489912327) rotate(0 103.5 49.5)"><path d="M24.75 0 C72.97 0.36, 119.08 1.34, 182.25 0 M24.75 0 C70.17 0.78, 117.53 1.42, 182.25 0 M182.25 0 C200.36 1.74, 205.02 9.2, 207 24.75 M182.25 0 C196.54 -2.12, 207.02 9.17, 207 24.75 M207 24.75 C207.13 42.78, 209.17 63.49, 207 74.25 M207 24.75 C207.84 41.7, 206.44 58.21, 207 74.25 M207 74.25 C206.77 92.22, 198.12 99.29, 182.25 99 M207 74.25 C205.3 88.58, 197.8 97.61, 182.25 99 M182.25 99 C135.44 98.95, 90.05 95.8, 24.75 99 M182.25 99 C137.75 98.14, 91.98 99.97, 24.75 99 M24.75 99 C9.46 100.44, -0.43 91.46, 0 74.25 M24.75 99 C8.7 100.21, 2.02 92.21, 0 74.25 M0 74.25 C-0.71 54.65, -0.09 34.93, 0 24.75 M0 74.25 C-0.42 63.32, -0.55 51.32, 0 24.75 M0 24.75 C1.77 7.56, 9.64 -1.68, 24.75 0 M0 24.75 C0.2 7.92, 6.84 2.04, 24.75 0" stroke="#1e1e1e" stroke-width="2" fill="none"></path></g><g transform="translate(402.6000289916992 131.19135489912327) rotate(0 28.89997100830078 12.5)"><text x="28.89997100830078" y="17.52" font-family="Virgil, Segoe UI Emoji" font-size="20px" fill="#1e1e1e" text-anchor="middle" style="white-space: pre;" direction="ltr" dominant-baseline="alphabetic">Origen</text></g><g transform="translate(251.95454545454538 511.9640821718505) rotate(0 17.679977416992188 12.5)"><text x="0" y="17.52" font-family="Virgil, Segoe UI Emoji" font-size="20px" fill="#2f9e44" text-anchor="start" style="white-space: pre;" direction="ltr" dominant-baseline="alphabetic">Res</text></g><g transform="translate(217.08367573131204 330.009536717305) rotate(0 58.07994079589844 12.5)"><text x="0" y="17.52" font-family="Virgil, Segoe UI Emoji" font-size="20px" fill="#2f9e44" text-anchor="start" style="white-space: pre;" direction="ltr" dominant-baseline="alphabetic">Carne_Roja</text></g><g transform="translate(73.5 161.69135489912327) rotate(0 41.099952697753906 12.5)"><text x="0" y="17.52" font-family="Virgil, Segoe UI Emoji" font-size="20px" fill="#2f9e44" text-anchor="start" style="white-space: pre;" direction="ltr" dominant-baseline="alphabetic">Proteina</text></g><g transform="translate(402.5 161.69135489912327) rotate(0 29.049972534179688 12.5)"><text x="0" y="17.52" font-family="Virgil, Segoe UI Emoji" font-size="20px" fill="#2f9e44" text-anchor="start" style="white-space: pre;" direction="ltr" dominant-baseline="alphabetic">Animal</text></g><g transform="translate(170.3571428571429 11.897704105472485) rotate(0 119.57170104980469 20.27071997848836)"><text x="0" y="28.411441121849286" font-family="Virgil, Segoe UI Emoji" font-size="32.433151965581374px" fill="#e03131" text-anchor="start" style="white-space: pre;" direction="ltr" dominant-baseline="alphabetic">ingredientes.kfb</text></g><g transform="translate(283.92857142857133 388.54849775626604) rotate(0 135.11456298828125 17.5)"><text x="0" y="24.528" font-family="Virgil, Segoe UI Emoji" font-size="28px" fill="#1971c2" text-anchor="start" style="white-space: pre;" direction="ltr" dominant-baseline="alphabetic">ingrediente_es_tipo</text></g><g transform="translate(12.214285714285666 219.9770691848376) rotate(0 125.27252960205078 17.5)"><text x="0" y="24.528" font-family="Virgil, Segoe UI Emoji" font-size="28px" fill="#1971c2" text-anchor="start" style="white-space: pre;" direction="ltr" dominant-baseline="alphabetic">tipo_es_nutriente</text></g><g transform="translate(388.07142857142844 214.9770691848375) rotate(0 102.07443237304688 17.5)"><text x="0" y="24.528" font-family="Virgil, Segoe UI Emoji" font-size="28px" fill="#1971c2" text-anchor="start" style="white-space: pre;" direction="ltr" dominant-baseline="alphabetic">tipo_es_origen</text></g><g stroke-linecap="round" transform="translate(646.4186761038645 281.9889739467423) rotate(0 103.5 49.5)"><path d="M24.75 0 C83.35 1.43, 143.48 -1.61, 182.25 0 M24.75 0 C69.87 0.45, 113.39 -1, 182.25 0 M182.25 0 C197.64 -1.68, 205.59 8.7, 207 24.75 M182.25 0 C198.53 1.8, 206.84 9.56, 207 24.75 M207 24.75 C209.06 42.87, 208.84 59.93, 207 74.25 M207 24.75 C206.65 38.09, 206.89 50.62, 207 74.25 M207 74.25 C205.17 92.57, 199.87 99.6, 182.25 99 M207 74.25 C205.36 89.92, 200.74 100, 182.25 99 M182.25 99 C143.31 97.44, 104.34 101.12, 24.75 99 M182.25 99 C136.57 98.68, 92.59 99.26, 24.75 99 M24.75 99 C7.08 100.09, -0.12 89.61, 0 74.25 M24.75 99 C10.49 99.42, 0.79 89.11, 0 74.25 M0 74.25 C-0.32 62.48, -0.06 50.66, 0 24.75 M0 74.25 C-0.87 56.18, -0.48 38.47, 0 24.75 M0 24.75 C-0.11 9.06, 10.05 0.13, 24.75 0 M0 24.75 C-1.16 6.82, 8.38 0.07, 24.75 0" stroke="#1e1e1e" stroke-width="2" fill="none"></path></g><g transform="translate(711.2287194388255 318.9889739467423) rotate(0 38.68995666503906 12.5)"><text x="38.68995666503906" y="17.52" font-family="Virgil, Segoe UI Emoji" font-size="20px" fill="#1e1e1e" text-anchor="middle" style="white-space: pre;" direction="ltr" dominant-baseline="alphabetic">Persona</text></g><g stroke-linecap="round" transform="translate(648.0615332467216 93.77468823245664) rotate(0 103.5 49.5)"><path d="M24.75 0 C86.04 1.55, 148.4 2.43, 182.25 0 M24.75 0 C82.76 0.31, 141.16 1.38, 182.25 0 M182.25 0 C198.56 1.56, 206.86 9.39, 207 24.75 M182.25 0 C200.45 1.72, 206.8 10.2, 207 24.75 M207 24.75 C206.58 37.09, 207.23 52.64, 207 74.25 M207 24.75 C206.22 42.65, 207.7 59.03, 207 74.25 M207 74.25 C205.57 90.03, 200.48 99.87, 182.25 99 M207 74.25 C205.7 89.03, 199.25 98.3, 182.25 99 M182.25 99 C149.73 99.17, 117.11 99.15, 24.75 99 M182.25 99 C131.11 100.79, 81.08 99.67, 24.75 99 M24.75 99 C10.2 99.37, 0.69 89.33, 0 74.25 M24.75 99 C6.55 101.2, -0.34 90.93, 0 74.25 M0 74.25 C0.95 62.83, -0.49 46.72, 0 24.75 M0 74.25 C-0.06 62.86, 0.9 50.73, 0 24.75 M0 24.75 C-1.01 7, 8.37 0.06, 24.75 0 M0 24.75 C0.33 6.15, 6.13 2.18, 24.75 0" stroke="#1e1e1e" stroke-width="2" fill="none"></path></g><g transform="translate(723.7815649850029 130.77468823245664) rotate(0 27.77996826171875 12.5)"><text x="27.77996826171875" y="17.52" font-family="Virgil, Segoe UI Emoji" font-size="20px" fill="#1e1e1e" text-anchor="middle" style="white-space: pre;" direction="ltr" dominant-baseline="alphabetic">Dieta</text></g><g transform="translate(720.4504221356106 342.16357712134544) rotate(0 19.949981689453125 12.5)"><text x="0" y="17.52" font-family="Virgil, Segoe UI Emoji" font-size="20px" fill="#2f9e44" text-anchor="start" style="white-space: pre;" direction="ltr" dominant-baseline="alphabetic">Max</text></g><g transform="translate(730.5593503921752 158.88579934356778) rotate(0 20.449981689453125 12.5)"><text x="0" y="17.52" font-family="Virgil, Segoe UI Emoji" font-size="20px" fill="#2f9e44" text-anchor="start" style="white-space: pre;" direction="ltr" dominant-baseline="alphabetic">Omni</text></g><g transform="translate(766.704390389579 222.8461168038852) rotate(0 72.39429473876953 17.5)"><text x="0" y="24.528" font-family="Virgil, Segoe UI Emoji" font-size="28px" fill="#1971c2" text-anchor="start" style="white-space: pre;" direction="ltr" dominant-baseline="alphabetic">usa_dieta</text></g><g transform="translate(657.0283735971602 10) rotate(0 97.24927520751953 20.27071997848836)"><text x="0" y="28.411441121849286" font-family="Virgil, Segoe UI Emoji" font-size="32.433151965581374px" fill="#e03131" text-anchor="start" style="white-space: pre;" direction="ltr" dominant-baseline="alphabetic">personas.kfb</text></g><g stroke-linecap="round" transform="translate(1135.317839728461 280.16600060265347) rotate(0 103.5 49.5)"><path d="M24.75 0 C62.53 -3.36, 103.58 -2.9, 182.25 0 M24.75 0 C78.62 1.18, 130.38 1.96, 182.25 0 M182.25 0 C197.27 1.37, 207.49 9.93, 207 24.75 M182.25 0 C199.22 -1.46, 209.19 10.03, 207 24.75 M207 24.75 C205.77 39.99, 205.7 54.82, 207 74.25 M207 24.75 C206.48 43.95, 207.62 62.7, 207 74.25 M207 74.25 C205.78 92.37, 197.99 98.87, 182.25 99 M207 74.25 C209.09 92.9, 201.01 100.41, 182.25 99 M182.25 99 C135.7 99.53, 86.1 100.49, 24.75 99 M182.25 99 C143.51 98.89, 103.14 99.03, 24.75 99 M24.75 99 C7.35 97.19, 0.54 90.92, 0 74.25 M24.75 99 C9.53 100.74, 0.76 91.73, 0 74.25 M0 74.25 C1.24 61.14, -1.72 44.85, 0 24.75 M0 74.25 C0.31 61.56, 0.01 48.19, 0 24.75 M0 24.75 C-1.23 8.75, 6.29 0.77, 24.75 0 M0 24.75 C-1.72 7.61, 7.06 -1.58, 24.75 0" stroke="#1e1e1e" stroke-width="2" fill="none"></path></g><g transform="translate(1211.717871771918 317.16600060265347) rotate(0 27.09996795654297 12.5)"><text x="27.09996795654297" y="17.52" font-family="Virgil, Segoe UI Emoji" font-size="20px" fill="#1e1e1e" text-anchor="middle" style="white-space: pre;" direction="ltr" dominant-baseline="alphabetic">Plato</text></g><g stroke-linecap="round" transform="translate(973.1511730617945 92.11044504709793) rotate(0 103.5 49.5)"><path d="M24.75 0 C58.25 3.03, 88.32 2.7, 182.25 0 M24.75 0 C65.62 0.02, 108.23 0.17, 182.25 0 M182.25 0 C199.16 -1.27, 208.91 9.8, 207 24.75 M182.25 0 C198.56 1.32, 208.51 6.51, 207 24.75 M207 24.75 C208.18 42.43, 204.98 57, 207 74.25 M207 24.75 C206.6 42.66, 206.83 58.88, 207 74.25 M207 74.25 C208.82 92.62, 200.71 100.23, 182.25 99 M207 74.25 C207.03 89.44, 199.15 100.07, 182.25 99 M182.25 99 C131.94 101.78, 82.65 100.84, 24.75 99 M182.25 99 C123.7 99.4, 66.32 100.39, 24.75 99 M24.75 99 C9.36 100.51, 0.66 91.6, 0 74.25 M24.75 99 C7.8 98.36, 0.06 92.02, 0 74.25 M0 74.25 C-0.22 55.73, 0.24 40.44, 0 24.75 M0 74.25 C-0.4 57.26, -0.77 40.15, 0 24.75 M0 24.75 C-1.49 7.7, 7.22 -1.37, 24.75 0 M0 24.75 C0.56 8.63, 9.93 0.53, 24.75 0" stroke="#1e1e1e" stroke-width="2" fill="none"></path></g><g transform="translate(1022.6112255520288 129.11044504709793) rotate(0 54.039947509765625 12.5)"><text x="54.039947509765625" y="17.52" font-family="Virgil, Segoe UI Emoji" font-size="20px" fill="#1e1e1e" text-anchor="middle" style="white-space: pre;" direction="ltr" dominant-baseline="alphabetic">Ingrediente</text></g><g transform="translate(1161.20672861735 344.8326672693201) rotate(0 77.57991027832031 12.5)"><text x="0" y="17.52" font-family="Virgil, Segoe UI Emoji" font-size="20px" fill="#2f9e44" text-anchor="start" style="white-space: pre;" direction="ltr" dominant-baseline="alphabetic">pastaBolognesa</text></g><g transform="translate(1046.9823235405813 161.33266726932015) rotate(0 29.169967651367188 12.5)"><text x="0" y="17.52" font-family="Virgil, Segoe UI Emoji" font-size="20px" fill="#2f9e44" text-anchor="start" style="white-space: pre;" direction="ltr" dominant-baseline="alphabetic">Queso</text></g><g transform="translate(1186.324362618581 11.827820306704893) rotate(0 78.46082305908203 20.27071997848836)"><text x="0" y="28.411441121849286" font-family="Virgil, Segoe UI Emoji" font-size="32.433151965581374px" fill="#e03131" text-anchor="start" style="white-space: pre;" direction="ltr" dominant-baseline="alphabetic">platos.kfb</text></g><g stroke-linecap="round"><g transform="translate(1184.8275480224013 278.33240829017683) rotate(0 -42.737112911294275 -42.41322423586627)"><path d="M0.52 -0.93 C-13.73 -15.05, -71.15 -70.22, -85.49 -84.39 M-0.66 1.19 C-15.07 -13.32, -72.17 -71.89, -86.44 -86.29" stroke="#1e1e1e" stroke-width="2" fill="none"></path></g><g transform="translate(1184.8275480224013 278.33240829017683) rotate(0 -42.737112911294275 -42.41322423586627)"><path d="M-63.88 -75.52 C-72.28 -78.69, -76.81 -82, -86.44 -86.29 M-63.88 -75.52 C-69.55 -77.82, -74.23 -79.69, -86.44 -86.29" stroke="#1e1e1e" stroke-width="2" fill="none"></path></g><g transform="translate(1184.8275480224013 278.33240829017683) rotate(0 -42.737112911294275 -42.41322423586627)"><path d="M-76.08 -63.53 C-80.82 -70.38, -81.67 -77.31, -86.44 -86.29 M-76.08 -63.53 C-79.26 -68.22, -81.42 -72.57, -86.44 -86.29" stroke="#1e1e1e" stroke-width="2" fill="none"></path></g></g><mask></mask><g stroke-linecap="round"><g transform="translate(271.2107286321823 445.50953671730525) rotate(0 0.3601620466877762 -39.13636363636368)"><path d="M-0.75 0.57 C-0.53 -12.63, 1.12 -65.54, 1.31 -78.57 M1.06 -0.17 C1.17 -13.26, 0.94 -63.96, 0.67 -77.19" stroke="#1e1e1e" stroke-width="2" fill="none"></path></g><g transform="translate(271.2107286321823 445.50953671730525) rotate(0 0.3601620466877762 -39.13636363636368)"><path d="M9.48 -53.8 C7.66 -59.92, 3.55 -68.54, 0.67 -77.19 M9.48 -53.8 C6.01 -61.87, 2.8 -71.36, 0.67 -77.19" stroke="#1e1e1e" stroke-width="2" fill="none"></path></g><g transform="translate(271.2107286321823 445.50953671730525) rotate(0 0.3601620466877762 -39.13636363636368)"><path d="M-7.62 -53.61 C-4.3 -59.68, -3.25 -68.36, 0.67 -77.19 M-7.62 -53.61 C-5 -61.76, -2.12 -71.31, 0.67 -77.19" stroke="#1e1e1e" stroke-width="2" fill="none"></path></g></g><mask></mask><g stroke-linecap="round"><g transform="translate(345.0050505050532 262.7822639900325) rotate(0 17.72727272727269 -35)"><path d="M-1.08 -1.16 C4.8 -13.08, 29.74 -59.53, 35.81 -70.91 M0.56 0.84 C6.27 -11.01, 29.38 -57.8, 35.05 -69.85" stroke="#1e1e1e" stroke-width="2" fill="none"></path></g><g transform="translate(345.0050505050532 262.7822639900325) rotate(0 17.72727272727269 -35)"><path d="M32.52 -44.98 C31.32 -52.91, 32.62 -62.19, 35.05 -69.85 M32.52 -44.98 C33.59 -54.33, 34.72 -62.87, 35.05 -69.85" stroke="#1e1e1e" stroke-width="2" fill="none"></path></g><g transform="translate(345.0050505050532 262.7822639900325) rotate(0 17.72727272727269 -35)"><path d="M17.13 -52.42 C21.26 -57.66, 27.85 -64.37, 35.05 -69.85 M17.13 -52.42 C23.59 -59.29, 30.07 -65.24, 35.05 -69.85" stroke="#1e1e1e" stroke-width="2" fill="none"></path></g></g><mask></mask><g stroke-linecap="round"><g transform="translate(187.27831061736492 262.7822639900325) rotate(0 -16.327087675307325 -33.136363636363626)"><path d="M0.19 -0.51 C-5.45 -11.53, -27.52 -54.57, -32.84 -65.45 M-1.16 -1.83 C-7.08 -13.23, -28.75 -56.13, -33.89 -67.14" stroke="#1e1e1e" stroke-width="2" fill="none"></path></g><g transform="translate(187.27831061736492 262.7822639900325) rotate(0 -16.327087675307325 -33.136363636363626)"><path d="M-15.89 -49.79 C-23.82 -56.8, -28.56 -61.66, -33.89 -67.14 M-15.89 -49.79 C-21.35 -54.84, -28.33 -61.87, -33.89 -67.14" stroke="#1e1e1e" stroke-width="2" fill="none"></path></g><g transform="translate(187.27831061736492 262.7822639900325) rotate(0 -16.327087675307325 -33.136363636363626)"><path d="M-31.25 -42.28 C-33.26 -52.22, -32.06 -60, -33.89 -67.14 M-31.25 -42.28 C-31.5 -49.88, -33.27 -59.46, -33.89 -67.14" stroke="#1e1e1e" stroke-width="2" fill="none"></path></g></g><mask></mask><g stroke-linecap="round"><g transform="translate(748.2555546448116 280.9889739467423) rotate(0 0.5982106632363866 -44.14123376623368)"><path d="M0.97 -0.68 C1.33 -15.49, 1.55 -73.85, 1.4 -88.64 M0.02 1.57 C0.31 -13.08, 0.17 -72.24, 0.56 -87.28" stroke="#1e1e1e" stroke-width="2" fill="none"></path></g><g transform="translate(748.2555546448116 280.9889739467423) rotate(0 0.5982106632363866 -44.14123376623368)"><path d="M8.87 -63.71 C5.72 -68.89, 4.3 -76.72, 0.56 -87.28 M8.87 -63.71 C7.67 -69.31, 4.86 -72.45, 0.56 -87.28" stroke="#1e1e1e" stroke-width="2" fill="none"></path></g><g transform="translate(748.2555546448116 280.9889739467423) rotate(0 0.5982106632363866 -44.14123376623368)"><path d="M-8.23 -63.88 C-7.33 -69.16, -4.7 -76.95, 0.56 -87.28 M-8.23 -63.88 C-5.91 -69.58, -5.19 -72.68, 0.56 -87.28" stroke="#1e1e1e" stroke-width="2" fill="none"></path></g></g><mask></mask><g stroke-linecap="round" transform="translate(1356.8961487972394 98.2125096808362) rotate(0 103.49999999999989 49.5)"><path d="M24.75 0 C82.81 0.46, 139.09 0.07, 182.25 0 M24.75 0 C59.83 -0.21, 95.06 -0.36, 182.25 0 M182.25 0 C200.66 -1.18, 207.52 8.93, 207 24.75 M182.25 0 C199.47 -1.67, 204.8 9.67, 207 24.75 M207 24.75 C207.65 41.12, 207.04 57.61, 207 74.25 M207 24.75 C206.21 36.9, 206.24 48.66, 207 74.25 M207 74.25 C206.45 90.36, 199.46 97.89, 182.25 99 M207 74.25 C207.34 92.9, 199.55 99.16, 182.25 99 M182.25 99 C137.05 97.15, 89.75 100.63, 24.75 99 M182.25 99 C148.97 97.68, 115.38 97.42, 24.75 99 M24.75 99 C7.56 100.46, 1.68 92.51, 0 74.25 M24.75 99 C9.39 99.14, 1.09 92.29, 0 74.25 M0 74.25 C-0.42 65.14, 1.73 52.6, 0 24.75 M0 74.25 C0.58 61.38, 0.75 48.64, 0 24.75 M0 24.75 C-1.97 9.39, 6.9 -0.48, 24.75 0 M0 24.75 C-1.37 10.33, 8.23 -1.77, 24.75 0" stroke="#1e1e1e" stroke-width="2" fill="none"></path></g><g transform="translate(1412.0762025081767 135.2125096808362) rotate(0 48.3199462890625 12.5)"><text x="48.3199462890625" y="17.52" font-family="Virgil, Segoe UI Emoji" font-size="20px" fill="#1e1e1e" text-anchor="middle" style="white-space: pre;" direction="ltr" dominant-baseline="alphabetic">Derivados</text></g><g transform="translate(1373.2828548315824 160.87917634750283) rotate(0 89.11990356445312 12.5)"><text x="0" y="17.52" font-family="Virgil, Segoe UI Emoji" font-size="20px" fill="#2f9e44" text-anchor="start" style="white-space: pre;" direction="ltr" dominant-baseline="alphabetic">Queso_Parmesano</text></g><g transform="translate(995.8409726526811 235.76806523639186) rotate(0 72.04429626464844 17.5)"><text x="0" y="24.528" font-family="Virgil, Segoe UI Emoji" font-size="28px" fill="#1971c2" text-anchor="start" style="white-space: pre;" direction="ltr" dominant-baseline="alphabetic">plato_usa</text></g><g transform="translate(1195.3647821764903 153.7045731728998) rotate(0 72.04429626464844 17.5)"><text x="0" y="24.528" font-family="Virgil, Segoe UI Emoji" font-size="28px" fill="#1971c2" text-anchor="start" style="white-space: pre;" direction="ltr" dominant-baseline="alphabetic">plato_usa</text></g><g stroke-linecap="round"><g transform="translate(1333.9758947970477 274.3791763475029) rotate(0 26.025904874740718 -34.44444444444446)"><path d="M-0.58 -0.81 C8.26 -12.35, 43.36 -56.93, 52.3 -68.08 M1.31 1.37 C10.09 -9.99, 42.9 -57.98, 51.48 -69.78" stroke="#e03131" stroke-width="2" fill="none"></path></g><g transform="translate(1333.9758947970477 274.3791763475029) rotate(0 26.025904874740718 -34.44444444444446)"><path d="M44.96 -45.65 C44.91 -50.88, 49.14 -55.33, 51.48 -69.78 M44.96 -45.65 C48.49 -54.77, 50.69 -64.39, 51.48 -69.78" stroke="#e03131" stroke-width="2" fill="none"></path></g><g transform="translate(1333.9758947970477 274.3791763475029) rotate(0 26.025904874740718 -34.44444444444446)"><path d="M30.97 -55.49 C34.3 -58.33, 41.82 -60.47, 51.48 -69.78 M30.97 -55.49 C40.03 -60.82, 47.8 -66.53, 51.48 -69.78" stroke="#e03131" stroke-width="2" fill="none"></path></g></g><mask></mask><g stroke-linecap="round"><g transform="translate(1342.6183710194573 138.7158213444526) rotate(0 -76.94444444444412 0.5728291636195024)"><path d="M1.08 0.53 C-24.92 0.95, -129.18 1.43, -154.94 1.59 M0.19 -0.24 C-25.55 -0.1, -127.08 -0.83, -152.78 -0.31" stroke="#e03131" stroke-width="2" fill="none"></path></g><g transform="translate(1342.6183710194573 138.7158213444526) rotate(0 -76.94444444444412 0.5728291636195024)"><path d="M-129.33 -8.97 C-137.67 -7.12, -146.97 -1.25, -152.78 -0.31 M-129.33 -8.97 C-136.79 -6.65, -144.58 -2.53, -152.78 -0.31" stroke="#e03131" stroke-width="2" fill="none"></path></g><g transform="translate(1342.6183710194573 138.7158213444526) rotate(0 -76.94444444444412 0.5728291636195024)"><path d="M-129.24 8.13 C-137.48 3.3, -146.82 2.5, -152.78 -0.31 M-129.24 8.13 C-136.66 4.87, -144.47 3.42, -152.78 -0.31" stroke="#e03131" stroke-width="2" fill="none"></path></g></g><mask></mask><g transform="translate(1367.4322424939526 230.80774777607417) rotate(0 72.04429626464855 17.5)"><text x="0" y="24.528" font-family="Virgil, Segoe UI Emoji" font-size="28px" fill="#1971c2" text-anchor="start" style="white-space: pre;" direction="ltr" dominant-baseline="alphabetic">plato_usa</text></g></svg>